# xmcd
#
# Track frame offsets:
#	150
#	19032
#	35085
#	52620
#	83445
#	96265
#	118310
#	132577
#	145012
#	158527
#
# Disc length: 2363 seconds
# Revision: 7
# Processed by: cddbd v1.5.2PL0 Copyright (c) Steve Scherf et al.
# Submitted via: dBpowerAMP V12.0
#
DISCID=7809390a
DTITLE=Alabama - Mountain Music
DYEAR=1982
DGENRE=Country
TTITLE0=Mountain Music
TTITLE1=Close Enough To Perfect
TTITLE2=Words At Twenty Paces
TTITLE3=Changes Comin' On
TTITLE4=Green River
TTITLE5=Take Me Down
TTITLE6=You Turn Me On
TTITLE7=Never Be One
TTITLE8=Lovin' You Is Killin' Me
TTITLE9=Gonna Have A Party
EXTD=
EXTT0=
EXTT1=
EXTT2=
EXTT3=
EXTT4=
EXTT5=
EXTT6=
EXTT7=
EXTT8=
EXTT9=
PLAYORDER=
